<?xml version="1.0" encoding="UTF-8" standalone="no"?>
<!-- Created with Inkscape (http://www.inkscape.org/) -->

<svg
   xmlns:dc="http://purl.org/dc/elements/1.1/"
   xmlns:cc="http://creativecommons.org/ns#"
   xmlns:rdf="http://www.w3.org/1999/02/22-rdf-syntax-ns#"
   xmlns:svg="http://www.w3.org/2000/svg"
   xmlns="http://www.w3.org/2000/svg"
   xmlns:sodipodi="http://sodipodi.sourceforge.net/DTD/sodipodi-0.dtd"
   xmlns:inkscape="http://www.inkscape.org/namespaces/inkscape"
   width="744.09448819"
   height="1052.3622047"
   id="svg2"
   version="1.1"
   inkscape:version="0.48.0 r9654"
   sodipodi:docname="pierko.svg">
  <defs
     id="defs4" />
  <sodipodi:namedview
     id="base"
     pagecolor="#ffffff"
     bordercolor="#666666"
     borderopacity="1.0"
     inkscape:pageopacity="0.0"
     inkscape:pageshadow="2"
     inkscape:zoom="1.01"
     inkscape:cx="375"
     inkscape:cy="520"
     inkscape:document-units="px"
     inkscape:current-layer="layer1"
     showgrid="false"
     inkscape:window-width="1280"
     inkscape:window-height="750"
     inkscape:window-x="-8"
     inkscape:window-y="-8"
     inkscape:window-maximized="1" />
  <metadata
     id="metadata7">
    <rdf:RDF>
      <cc:Work
         rdf:about="">
        <dc:format>image/svg+xml</dc:format>
        <dc:type
           rdf:resource="http://purl.org/dc/dcmitype/StillImage" />
        <dc:title />
      </cc:Work>
    </rdf:RDF>
  </metadata>
  <g
     inkscape:label="Vrstva 1"
     inkscape:groupmode="layer"
     id="layer1">
    <g
       transform="matrix(1.4119041,-1.3751152,1.4119041,1.3751152,-803.16418,-111.45133)"
       id="g3820">
      <path
         style="opacity:0.5787402;color:#000000;fill:#1f5598;fill-opacity:1;fill-rule:evenodd;stroke:none;stroke-width:3;marker:none;visibility:visible;display:inline;overflow:visible;enable-background:accumulate"
         d="m 205.21875,478.53125 c -9.32282,0.20557 -32.40941,40.13761 -38.71875,55.875 -2.95592,7.37295 -4.36934,15.19382 -4.90625,23.625 L 179.9375,586 161.34375,566.46875 c -0.0333,8.41667 0.51776,17.394 1.125,27.09375 l 12,14.84375 -11.53125,-6.375 c 0.34608,5.98714 0.66846,12.15498 0.8125,18.6875 0.53129,24.09463 3.26209,61.66756 7.8125,98.21875 L 186.71875,750.71875 172.6875,727.5 c 1.27844,9.60634 2.66746,19.06025 4.1875,28.09375 l 14.15625,17 -13.5,-13.3125 c 1.39374,8.00343 2.89545,15.59557 4.46875,22.65625 l 14,9.15625 -18.74053,-5.10966 c 2.2337,8.22866 16.00516,10.24696 20.22546,13.23961 0,0 -18.35235,-1.47674 -16.48056,0.0653 5.13595,4.23118 12.22298,5.01787 14.95136,6.21043 5.21764,2.28061 3.32549,2.03182 3.32549,2.03182 -1.71827,-0.31873 -8.34032,4.31066 -12.85633,4.275 -3.2433,-0.0256 2.64329,0.16019 6.36624,-0.25953 14.31003,-4.16284 7.81899,-1.0595 8.96845,-1.93244 1.8048,-1.37063 -10.87561,5.72424 -13.10631,5.87687 -3.15771,0.21605 3.04892,1.4336 5.35469,0.35605 6.33468,-3.03292 12.81939,-5.52909 19.65474,-1.58475 4.90704,2.83161 9.65116,-0.21607 7.8019,-1.3297 -1.74836,-1.83594 0.41271,0.30444 0.2971,0.43753 -1.48591,1.71056 -6.05223,-0.7293 -6.1023,-2.99457 -0.0714,-3.23187 9.94073,-1.75458 8.50892,-4.65286 -0.29476,-0.59665 4.1858,1.43654 -1.82513,0.80916 -2.13311,-0.31119 -2.95575,-0.90497 -4.40475,1.24673 0,0 1.80686,-3.3305 0.92239,-3.02319 -11.5532,4.01423 6.8807,-4.06581 9.80147,-11.35703 l -13.49446,2.54406 10.05089,-11.72381 c 0.76355,-2.90625 1.51203,-5.93528 2.25,-9.03125 L 213.9375,782.96875 228,772.90625 c 0.92178,-3.95428 1.83536,-8.03724 2.71875,-12.25 l -18.1875,12.875 18.90625,-16.40625 c 1.38692,-6.80478 2.70873,-13.90014 3.96875,-21.125 l -19.875,22 L 236.5,729.625 c 7.22135,-43.28965 11.92449,-90.89581 11.90625,-120.09375 l -13,8.4375 12.96875,-10.65625 c -0.009,-0.95912 -0.0111,-1.96077 -0.0312,-2.875 -0.0959,-4.34951 -0.20685,-8.60916 -0.34375,-12.8125 l -13.28125,12.09375 13.1875,-15.03125 c -0.5639,-15.69704 -1.53944,-30.20306 -3.5,-42.625 L 226.3125,561.4375 240.5,528.75 c -0.27488,-0.88823 -0.54855,-1.7758 -0.84375,-2.625 -2.00695,-5.77343 -3.5651,-9.73475 -6.90625,-13.75 -6.59317,-7.92339 -20.23289,-34.00468 -27.53125,-33.84375 z"
         id="path3822"
         inkscape:connector-curvature="0"
         sodipodi:nodetypes="ssccccccsccccccccccsscscsscscaaacsscccccccccccccccsccccccsss" />
      <path
         style="fill:#f0e2e2;fill-opacity:1;fill-rule:evenodd;stroke:#000000;stroke-width:0.30448374;stroke-linecap:round;stroke-miterlimit:4;stroke-opacity:1;stroke-dasharray:none"
         d="m 205.03027,478.50897 c 0.98759,-6.7e-4 1.79611,80.65934 1.80473,180.04466 0.009,99.38532 -0.7859,180.04641 -1.77349,180.04708 -0.98759,6.7e-4 -1.79612,-80.65934 -1.80474,-180.04466 -0.009,-99.38532 0.78591,-180.04641 1.7735,-180.04708 z"
         id="path3824"
         inkscape:connector-curvature="0" />
      <path
         style="fill:#000000;fill-rule:evenodd;stroke:none"
         d="m 202.27526,842.66329 c 2.17405,-4.38098 4.31029,-2.37829 5.40143,0.47766 l -2.51398,-28.92929 z"
         id="path3826"
         inkscape:connector-curvature="0"
         sodipodi:nodetypes="cccc" />
    </g>
  </g>
</svg>
