<?xml version="1.0" encoding="UTF-8" standalone="no"?>
<!-- Created with Inkscape (http://www.inkscape.org/) -->

<svg
   xmlns:dc="http://purl.org/dc/elements/1.1/"
   xmlns:cc="http://creativecommons.org/ns#"
   xmlns:rdf="http://www.w3.org/1999/02/22-rdf-syntax-ns#"
   xmlns:svg="http://www.w3.org/2000/svg"
   xmlns="http://www.w3.org/2000/svg"
   xmlns:sodipodi="http://sodipodi.sourceforge.net/DTD/sodipodi-0.dtd"
   xmlns:inkscape="http://www.inkscape.org/namespaces/inkscape"
   width="360.7464"
   height="199.01761"
   id="svg2"
   version="1.1"
   inkscape:version="0.48.1 r9760"
   sodipodi:docname="New document 1">
  <defs
     id="defs4">
    <filter
       inkscape:collect="always"
       id="filter3815"
       x="-0.053078178"
       width="1.1061563"
       y="-0.14299606"
       height="1.2859921"
       color-interpolation-filters="sRGB">
      <feGaussianBlur
         inkscape:collect="always"
         stdDeviation="15.588259"
         id="feGaussianBlur3817" />
    </filter>
  </defs>
  <sodipodi:namedview
     id="base"
     pagecolor="#ffffff"
     bordercolor="#666666"
     borderopacity="1.0"
     inkscape:pageopacity="0.0"
     inkscape:pageshadow="2"
     inkscape:zoom="0.49545523"
     inkscape:cx="205.07616"
     inkscape:cy="-0.76851991"
     inkscape:document-units="px"
     inkscape:current-layer="layer1"
     showgrid="false"
     fit-margin-top="0"
     fit-margin-left="0"
     fit-margin-right="0"
     fit-margin-bottom="0"
     inkscape:window-width="1230"
     inkscape:window-height="776"
     inkscape:window-x="50"
     inkscape:window-y="24"
     inkscape:window-maximized="1" />
  <metadata
     id="metadata7">
    <rdf:RDF>
      <cc:Work
         rdf:about="">
        <dc:format>image/svg+xml</dc:format>
        <dc:type
           rdf:resource="http://purl.org/dc/dcmitype/StillImage" />
        <dc:title></dc:title>
      </cc:Work>
    </rdf:RDF>
  </metadata>
  <g
     inkscape:label="Layer 1"
     inkscape:groupmode="layer"
     id="layer1"
     transform="translate(-38.046118,-63.911101)">
    <g
       id="g3877"
       transform="matrix(0.2856386,0,0,0.2856386,168.42546,108.49603)">
      <g
         id="g3819">
        <path
           style="fill:#24221c;stroke:none;filter:url(#filter3815)"
           d="m 736.74286,196.93755 c -14.92751,-0.11812 -33.67123,2.93317 -55.1875,4.875 -143.76556,12.97482 -318.08612,17.08182 -457.28125,110.5625 -19.61711,13.17446 -28.06867,48.62051 -30.96875,64.5625 -43.50558,18.31925 -86.53943,38.66236 -129.062497,61.46875 l 9.6875,20.15625 c 42.402637,-24.75789 85.325627,-46.89101 128.718747,-66.875 12.75307,7.30303 35.30871,17.72257 58.46875,16.28125 138.56361,-8.62327 323.0386,-80.25562 448.09375,-143.96875 24.74947,-12.60937 56.62535,-33.59565 59.87495,-52.96875 -6.3147,-10.6842 -17.41619,-13.97563 -32.3437,-14.09375 z"
           id="path3806"
           inkscape:connector-curvature="0" />
        <path
           style="fill:#ff7f2a;stroke:none"
           d="m 236.13049,309.41505 c 139.19513,-93.48068 313.52127,-97.60337 457.28683,-110.57819 43.03254,-3.88367 74.91152,-12.15354 87.54106,9.21486 -3.24973,19.3731 -35.14704,40.376 -59.89651,52.98537 -125.05515,63.71313 -309.50838,135.35875 -448.07199,143.98202 -35.16363,2.18834 -69.11137,-23.03713 -69.11137,-23.03713 0,0 6.62027,-55.35319 32.25198,-72.56693 z"
           id="path2989"
           inkscape:connector-curvature="0"
           sodipodi:nodetypes="sscsscs" />
        <path
           style="opacity:0.80281695;fill:#552200;stroke:none"
           d="m 271.78125,287.78125 c -2.55239,1.39811 -5.09144,2.83205 -7.625,4.28125 l 20.01256,36.20571 z M 261.1875,293.75 c -2.76576,1.60886 -5.50805,3.26553 -8.25,4.9375 l 18.29429,28.83444 z m -10.75,6.46875 c -2.61193,1.6156 -5.2234,3.23141 -7.8125,4.90625 l 14.95661,17.06857 z m -10.46875,6.65625 c -1.28054,0.84115 -2.56905,1.67519 -3.84375,2.53125 -1.6976,1.14007 -3.30934,2.45874 -4.84375,3.90625 l 14.89411,11.93377 z m -11.125,8.96875 c -1.50449,1.65548 -2.94076,3.41708 -4.28125,5.3125 l 13.2402,7.12127 z m -6.625,8.875 c -0.48152,0.77761 -0.94768,1.57334 -1.40625,2.375 l 7.88852,7.25793 z m -3.75,6.78125 c -0.58846,1.17554 -1.17291,2.36032 -1.71875,3.5625 l 8.15439,6.90252 c -7.35449,-26.93007 -3.7839,-4.69729 -6.43564,-10.46502 z m -3.59375,7.9375 c -5.10567,12.56322 -8.08851,25.62083 -9.625,33.90625 l 14.28125,18.125 c 8.61335,4.50284 20.07745,9.43446 32.6875,11.96875 l 9.15625,0.8125 c -27.24724,-13.68091 -53.01043,-29.01078 -45.58023,-60.77752 z"
           id="path3796"
           inkscape:connector-curvature="0"
           sodipodi:nodetypes="cccccccccccccscccccccccccccccccccccc" />
        <path
           style="fill:#d45500;stroke:#552200;stroke-width:3;stroke-linecap:butt;stroke-linejoin:miter;stroke-miterlimit:4;stroke-opacity:1;stroke-dasharray:none"
           d="M 76.087646,435.42919 C 271.09243,330.84232 476.78249,278.0683 689.90979,234.6383 482.38251,284.93806 278.55966,343.02545 85.780377,455.58468 z"
           id="path2985"
           inkscape:connector-curvature="0"
           sodipodi:nodetypes="cccc" />
        <path
           style="opacity:0.64319249;fill:#552200;stroke:none"
           d="m 742.3125,236.34375 9.4375,6.25 c 0.8325,-0.59518 1.68493,-1.17651 2.5,-1.78125 z m -10.625,5.3125 9.9375,7.71875 c 1.83028,-1.15087 3.64305,-2.32717 5.4375,-3.53125 z m -14.4375,9.125 9.9375,7 c 2.21793,-1.20101 4.4604,-2.44225 6.71875,-3.75 z m -15.96875,5.3125 10.375,9.6875 c 3.15121,-1.57805 6.29429,-3.18051 9.375,-4.75 z m -26.42104,6.79495 21.23354,10.58005 c 2.56376,-1.24887 5.07026,-2.50416 7.59375,-3.75 z m -18.84483,8.33498 24.01587,9.93257 c 3.14039,-1.48819 6.25603,-2.95073 9.34375,-4.4375 z m -24.18859,6.09375 31.95446,11.46382 C 666.87044,287.35687 669.95508,285.92582 673,284.5 z m -20.47368,7.53618 37.42814,10.74014 c 2.76924,-1.24527 5.54321,-2.47042 8.28125,-3.71875 z m -21.33882,5.25493 41.07946,13.32896 c 3.69987,-1.6152 7.37961,-3.21987 11.03125,-4.84375 z M 561.25443,298.61623 614.5,310.5625 c 3.03753,-1.28932 6.05285,-2.57766 9.0625,-3.875 z M 536.20071,308.48245 595.25,318.625 c 3.77687,-1.55058 7.54071,-3.12135 11.28125,-4.6875 z"
           id="path3801"
           inkscape:connector-curvature="0"
           sodipodi:nodetypes="cccccccccccccccccccccccccccccccccccccccccccc" />
      </g>
      <path
         transform="matrix(-1,0,0,1,350.04977,10.37717)"
         style="fill:#24221c;stroke:none;filter:url(#filter3815)"
         d="m 736.74286,196.93755 c -14.92751,-0.11812 -33.67123,2.93317 -55.1875,4.875 -143.76556,12.97482 -318.08612,17.08182 -457.28125,110.5625 -19.61711,13.17446 -28.06867,48.62051 -30.96875,64.5625 -43.50558,18.31925 -86.53943,38.66236 -129.062497,61.46875 l 9.6875,20.15625 c 42.402637,-24.75789 85.325627,-46.89101 128.718747,-66.875 12.75307,7.30303 35.30871,17.72257 58.46875,16.28125 138.56361,-8.62327 323.0386,-80.25562 448.09375,-143.96875 24.74947,-12.60937 56.62535,-33.59565 59.87495,-52.96875 -6.3147,-10.6842 -17.41619,-13.97563 -32.3437,-14.09375 z"
         id="path3828"
         inkscape:connector-curvature="0" />
      <path
         style="fill:#ff2a2a;stroke:none"
         d="m 113.91928,319.79222 c -139.19513,-93.48068 -313.52127,-97.60337 -457.28683,-110.57819 -43.03254,-3.88367 -74.91152,-12.15354 -87.54106,9.21486 3.24973,19.3731 35.14704,40.376 59.89651,52.98537 125.05515,63.71313 309.50838,135.35875 448.07199,143.98202 35.16363,2.18834 69.11137,-23.03713 69.11137,-23.03713 0,0 -6.62027,-55.35319 -32.25198,-72.56693 z"
         id="path3830"
         inkscape:connector-curvature="0"
         sodipodi:nodetypes="sscsscs" />
      <path
         style="opacity:0.80281695;fill:#552200;stroke:none"
         d="m 78.26852,298.15842 c 2.55239,1.39811 5.09144,2.83205 7.625,4.28125 l -20.01256,36.20571 z m 10.59375,5.96875 c 2.76576,1.60886 5.50805,3.26553 8.25,4.9375 l -18.29429,28.83444 z m 10.75,6.46875 c 2.61193,1.6156 5.2234,3.23141 7.8125,4.90625 l -14.95661,17.06857 z m 10.46875,6.65625 c 1.28054,0.84115 2.56905,1.67519 3.84375,2.53125 1.6976,1.14007 3.30934,2.45874 4.84375,3.90625 l -14.89411,11.93377 z m 11.125,8.96875 c 1.50449,1.65548 2.94076,3.41708 4.28125,5.3125 l -13.2402,7.12127 z m 6.625,8.875 c 0.48152,0.77761 0.94768,1.57334 1.40625,2.375 l -7.88852,7.25793 z m 3.75,6.78125 c 0.58846,1.17554 1.17291,2.36032 1.71875,3.5625 l -8.15439,6.90252 c 7.35449,-26.93007 3.7839,-4.69729 6.43564,-10.46502 z m 3.59375,7.9375 c 5.10567,12.56322 8.08851,25.62083 9.625,33.90625 l -14.28125,18.125 c -8.61335,4.50284 -20.07745,9.43446 -32.6875,11.96875 l -9.15625,0.8125 c 27.24724,-13.68091 53.01043,-29.01078 45.58023,-60.77752 z"
         id="path3832"
         inkscape:connector-curvature="0"
         sodipodi:nodetypes="cccccccccccccscccccccccccccccccccccc" />
      <path
         style="fill:#ff2a2a;stroke:#ff0000;stroke-width:3;stroke-linecap:butt;stroke-linejoin:miter;stroke-miterlimit:4;stroke-opacity:1;stroke-dasharray:none"
         d="M 273.96212,445.80636 C 78.95734,341.21949 -126.73272,288.44547 -339.86002,245.01547 -132.33274,295.31523 71.49011,353.40262 264.26939,465.96185 z"
         id="path3834"
         inkscape:connector-curvature="0"
         sodipodi:nodetypes="cccc" />
      <path
         style="opacity:0.64319249;fill:#ffaaaa;stroke:none"
         d="m -392.26273,246.72092 -9.4375,6.25 c -0.8325,-0.59518 -1.68493,-1.17651 -2.5,-1.78125 z m 10.625,5.3125 -9.9375,7.71875 c -1.83028,-1.15087 -3.64305,-2.32717 -5.4375,-3.53125 z m 14.4375,9.125 -9.9375,7 c -2.21793,-1.20101 -4.4604,-2.44225 -6.71875,-3.75 z m 15.96875,5.3125 -10.375,9.6875 c -3.15121,-1.57805 -6.29429,-3.18051 -9.375,-4.75 z m 26.42104,6.79495 -21.23354,10.58005 c -2.56376,-1.24887 -5.07026,-2.50416 -7.59375,-3.75 z m 18.84483,8.33498 -24.01587,9.93257 c -3.14039,-1.48819 -6.25603,-2.95073 -9.34375,-4.4375 z m 24.18859,6.09375 -31.95446,11.46382 c -3.08919,-1.42438 -6.17383,-2.85543 -9.21875,-4.28125 z m 20.47368,7.53618 -37.42814,10.74014 c -2.76924,-1.24527 -5.54321,-2.47042 -8.28125,-3.71875 z m 21.33882,5.25493 -41.07946,13.32896 c -3.69987,-1.6152 -7.37961,-3.21987 -11.03125,-4.84375 z m 28.75986,8.50769 -53.24557,11.94627 c -3.03753,-1.28932 -6.05285,-2.57766 -9.0625,-3.875 z m 25.05372,9.86622 -59.04929,10.14255 c -3.77687,-1.55058 -7.54071,-3.12135 -11.28125,-4.6875 z"
         id="path3836"
         inkscape:connector-curvature="0"
         sodipodi:nodetypes="cccccccccccccccccccccccccccccccccccccccccccc" />
      <path
         transform="matrix(-0.79496018,-0.60666161,-0.60666161,0.79496018,543.62817,183.55753)"
         inkscape:connector-curvature="0"
         id="path3840"
         d="m 736.74286,196.93755 c -14.92751,-0.11812 -33.67123,2.93317 -55.1875,4.875 -143.76556,12.97482 -318.08612,17.08182 -457.28125,110.5625 -19.61711,13.17446 -28.06867,48.62051 -30.96875,64.5625 -43.50558,18.31925 -86.53943,38.66236 -129.062497,61.46875 l 9.6875,20.15625 c 42.402637,-24.75789 85.325627,-46.89101 128.718747,-66.875 12.75307,7.30303 35.30871,17.72257 58.46875,16.28125 138.56361,-8.62327 323.0386,-80.25562 448.09375,-143.96875 24.74947,-12.60937 56.62535,-33.59565 59.87495,-52.96875 -6.3147,-10.6842 -17.41619,-13.97563 -32.3437,-14.09375 z"
         style="fill:#24221c;stroke:none;filter:url(#filter3815)" />
      <path
         sodipodi:nodetypes="sscsscs"
         inkscape:connector-curvature="0"
         id="path3842"
         d="M 168.2036,286.27887 C 114.26016,127.52111 -21.821107,18.48676 -128.23768,-79.044752 c -31.85308,-29.193548 -52.17859,-55.107528 -75.18196,-45.782358 -9.16951,17.37233 3.44593,53.419677 15.47115,78.458177 60.76156,126.51556 163.929885,295.371673 268.851031,386.288043 26.626099,23.07207 68.916529,23.61362 68.916529,23.61362 0,0 28.3178,-48.01985 18.38453,-77.25386 z"
         style="fill:#ff55dd;stroke:none" />
      <path
         sodipodi:nodetypes="cccccccccccccscccccccccccccccccccccc"
         inkscape:connector-curvature="0"
         id="path3844"
         d="m 152.98706,247.45291 c 1.18087,2.65988 2.3294,5.34015 3.4643,8.02922 l -37.8738,16.64125 z m 4.8006,11.17174 c 1.22264,2.95686 2.39761,5.93749 3.56303,8.93008 l -32.03598,11.82379 z m 4.62148,11.66401 c 1.09626,2.8689 2.19202,5.73768 3.23419,8.63982 l -22.24475,4.49523 z m 4.28415,11.64245 c 0.50768,1.44553 1.02602,2.89025 1.52001,4.3441 0.65789,1.93617 1.13917,3.96225 1.48082,6.04383 l -19.07998,0.45118 z m 3.40293,13.87891 c 0.1917,2.22875 0.26478,4.50049 0.18054,6.82049 l -14.84564,-2.37119 z m -0.11751,11.0744 c -0.089,0.91029 -0.20111,1.82567 -0.32291,2.74115 l -10.67416,0.9841 z m -1.13282,7.66581 c -0.24535,1.2915 -0.4995,2.58792 -0.79489,3.87474 l -10.66991,0.54027 c 22.18396,-16.94664 5.85771,-1.43861 11.4648,-4.41501 z m -1.95849,8.49018 c -3.56282,13.08468 -9.11313,25.27453 -12.91813,32.79324 l -22.34876,5.74477 c -9.57897,-1.64581 -21.6843,-4.6802 -33.246246,-10.31558 L 90.602497,346.354 c 29.960153,5.65408 59.740903,9.09698 73.105853,-20.66393 z"
         style="opacity:0.80281695;fill:#d40055;stroke:none" />
      <path
         sodipodi:nodetypes="cccc"
         inkscape:connector-curvature="0"
         id="path3846"
         d="M 218.98335,483.54694 C 127.41115,282.10263 -4.0882866,115.36512 -147.16869,-48.456149 -12.707699,117.42899 114.08396,287.25765 199.05045,493.68955 z"
         style="fill:#ff2ad4;stroke:#ff00cc;stroke-width:3;stroke-linecap:butt;stroke-linejoin:miter;stroke-miterlimit:4;stroke-opacity:1;stroke-dasharray:none" />
      <path
         sodipodi:nodetypes="cccccccccccccccccccccccccccccccccccccccccccc"
         inkscape:connector-curvature="0"
         id="path3848"
         d="m -189.86139,-78.891096 -11.29407,-0.756868 c -0.30073,-0.97819 -0.62571,-1.957461 -0.90678,-2.932677 z m 5.22356,10.669005 -12.58258,0.107399 c -0.75681,-2.025256 -1.48428,-4.060106 -2.18032,-6.105925 z m 5.94145,16.012689 -12.14654,-0.463979 c -1.03456,-2.300288 -2.06423,-4.647445 -3.06616,-7.057108 z m 9.47163,13.910853 -14.12474,1.407063 c -1.54775,-3.166205 -3.07422,-6.346883 -4.57111,-9.463513 z m 16.88144,21.430346 -23.29832,-4.470855 c -1.28045,-2.548137 -2.51148,-5.06664 -3.76175,-7.587938 z m 9.92438,18.0584119 -25.11737,-6.6735088 c -1.59366,-3.0882058 -3.1832,-6.1410061 -4.73585,-9.1961301 z m 15.53212,19.5185771 -32.35718,-10.272263 c -1.59167,-3.0064187 -3.17567,-6.0153791 -4.73127,-8.9960853 z m 11.70385,18.411559 -36.26951,-14.168232 c -1.44598,-2.669932 -2.90792,-5.326738 -4.32724,-7.980175 z m 13.77555,17.122903 -40.7427,-14.325339 c -1.96137,-3.528589 -3.91313,-7.036594 -5.83089,-10.542824 z m 17.701654,24.210778 -49.575454,-22.805234 c -1.63253,-2.867711 -3.248,-5.721169 -4.85351,-8.578342 z m 13.931253,23.042384 -53.094927,-27.760016 c -2.06179,-3.523931 -4.10096,-7.056008 -6.12442,-10.570277 z"
         style="opacity:0.64319249;fill:#ffaacc;stroke:none" />
      <path
         transform="matrix(0.79496018,-0.60666161,0.60666161,0.79496018,-209.10464,182.07508)"
         style="fill:#24221c;stroke:none;filter:url(#filter3815)"
         d="m 736.74286,196.93755 c -14.92751,-0.11812 -33.67123,2.93317 -55.1875,4.875 -143.76556,12.97482 -318.08612,17.08182 -457.28125,110.5625 -19.61711,13.17446 -28.06867,48.62051 -30.96875,64.5625 -43.50558,18.31925 -86.53943,38.66236 -129.062497,61.46875 l 9.6875,20.15625 c 42.402637,-24.75789 85.325627,-46.89101 128.718747,-66.875 12.75307,7.30303 35.30871,17.72257 58.46875,16.28125 138.56361,-8.62327 323.0386,-80.25562 448.09375,-143.96875 24.74947,-12.60937 56.62535,-33.59565 59.87495,-52.96875 -6.3147,-10.6842 -17.41619,-13.97563 -32.3437,-14.09375 z"
         id="path3852"
         inkscape:connector-curvature="0" />
      <path
         style="fill:#88aa00;stroke:none"
         d="M 166.31993,284.79642 C 220.26337,126.03866 356.34464,17.00431 462.76121,-80.527202 c 31.85308,-29.193548 52.17859,-55.107528 75.18196,-45.782358 9.16951,17.37233 -3.44593,53.419677 -15.47115,78.458177 -60.76156,126.51556 -163.92989,295.371673 -268.85103,386.288043 -26.6261,23.07207 -68.91653,23.61362 -68.91653,23.61362 0,0 -28.3178,-48.01985 -18.38453,-77.25386 z"
         id="path3854"
         inkscape:connector-curvature="0"
         sodipodi:nodetypes="sscsscs" />
      <path
         style="opacity:0.80281695;fill:#225500;stroke:none"
         d="m 181.53647,245.97046 c -1.18087,2.65988 -2.3294,5.34015 -3.4643,8.02922 l 37.8738,16.64125 z m -4.8006,11.17174 c -1.22264,2.95686 -2.39761,5.93749 -3.56303,8.93008 l 32.03598,11.82379 z m -4.62148,11.66401 c -1.09626,2.8689 -2.19202,5.73768 -3.23419,8.63982 l 22.24475,4.49523 z m -4.28415,11.64245 c -0.50768,1.44553 -1.02602,2.89025 -1.52001,4.3441 -0.65789,1.93617 -1.13917,3.96225 -1.48082,6.04383 l 19.07998,0.45118 z m -3.40293,13.87891 c -0.1917,2.22875 -0.26478,4.50049 -0.18054,6.82049 l 14.84564,-2.37119 z m 0.11751,11.0744 c 0.089,0.91029 0.20111,1.82567 0.32291,2.74115 l 10.67416,0.9841 z m 1.13282,7.66581 c 0.24535,1.2915 0.4995,2.58792 0.79489,3.87474 l 10.66991,0.54027 c -22.18396,-16.94664 -5.85771,-1.43861 -11.4648,-4.41501 z m 1.95849,8.49018 c 3.56282,13.08468 9.11313,25.27453 12.91813,32.79324 l 22.34876,5.74477 c 9.57897,-1.64581 21.6843,-4.6802 33.24625,-10.31558 l 7.77176,-4.90884 c -29.96015,5.65408 -59.7409,9.09698 -73.10585,-20.66393 z"
         id="path3856"
         inkscape:connector-curvature="0"
         sodipodi:nodetypes="cccccccccccccscccccccccccccccccccccc" />
      <path
         style="fill:#668000;stroke:#445500;stroke-width:3;stroke-linecap:butt;stroke-linejoin:miter;stroke-miterlimit:4;stroke-opacity:1;stroke-dasharray:none"
         d="M 115.54018,482.06449 C 207.11238,280.62018 338.61182,113.88267 481.69222,-49.938599 347.23123,115.94654 220.43957,285.7752 135.47308,492.2071 z"
         id="path3858"
         inkscape:connector-curvature="0"
         sodipodi:nodetypes="cccc" />
      <path
         style="opacity:0.64319249;fill:#b3ff80;stroke:none"
         d="m 524.38492,-80.373546 11.29407,-0.756868 c 0.30073,-0.97819 0.62571,-1.957461 0.90678,-2.932677 z m -5.22356,10.669005 12.58258,0.107399 c 0.75681,-2.025256 1.48428,-4.060106 2.18032,-6.105925 z m -5.94145,16.012689 12.14654,-0.463979 c 1.03456,-2.300288 2.06423,-4.647445 3.06616,-7.057108 z m -9.47163,13.910853 14.12474,1.407063 c 1.54775,-3.166205 3.07422,-6.346883 4.57111,-9.463513 z m -16.88144,21.430346 23.29832,-4.470855 c 1.28045,-2.548137 2.51148,-5.06664 3.76175,-7.587938 z m -9.92438,18.05841186 25.11737,-6.67350876 c 1.59366,-3.0882061 3.1832,-6.1410061 4.73585,-9.1961301 z M 461.41034,19.226336 493.76752,8.9540727 c 1.59167,-3.0064184 3.17567,-6.0153788 4.73127,-8.99608502 z M 449.70649,37.637895 485.976,23.469663 c 1.44598,-2.669932 2.90792,-5.326738 4.32724,-7.980175 z m -13.77555,17.122903 40.7427,-14.325339 c 1.96137,-3.528589 3.91313,-7.036594 5.83089,-10.542824 z m -17.70165,24.210778 49.57545,-22.805234 c 1.63253,-2.867711 3.248,-5.721169 4.85351,-8.578342 z m -13.93126,23.042384 53.09493,-27.760016 c 2.06179,-3.523931 4.10096,-7.056008 6.12442,-10.570277 z"
         id="path3860"
         inkscape:connector-curvature="0"
         sodipodi:nodetypes="cccccccccccccccccccccccccccccccccccccccccccc" />
    </g>
  </g>
</svg>
